<?xml version="1.0" encoding="utf-8"?>
<!-- Generator: Adobe Illustrator 26.3.1, SVG Export Plug-In . SVG Version: 6.00 Build 0)  -->
<svg version="1.1" id="Calque_1" xmlns="http://www.w3.org/2000/svg" xmlns:xlink="http://www.w3.org/1999/xlink" x="0px" y="0px"
	 viewBox="0 0 540 360" style="enable-background:new 0 0 540 360;" xml:space="preserve">
<style type="text/css">
	.st0{enable-background:new    ;}
	.st1{fill:#393639;}
	.st2{fill:#3989C3;}
</style>
<g class="st0">
	<path class="st1" d="M136.1,229.8l-15.8-38.3v41.4c0,1.4-0.5,2.5-1.6,3.3c-1.1,0.8-2.4,1.2-3.9,1.2c-1.5,0-2.8-0.4-3.9-1.2
		c-1.1-0.8-1.6-1.9-1.6-3.3l0-46.8c0-2.4,0.9-4.3,2.7-5.8c1.8-1.5,4-2.3,6.4-2.3c2.1,0,4,0.6,5.8,1.8c1.8,1.2,3.2,3,4.1,5.4
		l14.8,35.5v14.9C139.9,235.7,137.5,233.7,136.1,229.8z M143.1,220.8l14.9-35.5c0.9-2.4,2.3-4.2,4.1-5.4c1.8-1.2,3.7-1.8,5.8-1.8
		c2.4,0,4.6,0.8,6.4,2.3c1.8,1.5,2.7,3.4,2.7,5.8v46.8c0,1.4-0.5,2.5-1.6,3.3c-1.1,0.8-2.4,1.2-3.9,1.2c-1.5,0-2.8-0.4-3.9-1.2
		c-1.1-0.8-1.6-1.9-1.6-3.3v-41.4l-15.8,38.3c-1.5,3.9-3.9,5.9-7,5.9V220.8z"/>
	<path class="st1" d="M191.5,185c-1.2-1.1-1.7-2.5-1.7-4.3c0-1.8,0.6-3.2,1.7-4.3c1.2-1.1,2.7-1.6,4.5-1.6c1.8,0,3.3,0.5,4.5,1.6
		c1.1,1.1,1.7,2.5,1.7,4.3c0,1.8-0.6,3.2-1.7,4.3s-2.7,1.6-4.5,1.6C194.2,186.6,192.7,186.1,191.5,185z M192.2,236.4
		c-1-1-1.5-2.5-1.5-4.4v-30.8c0-1.9,0.5-3.4,1.5-4.4c1-1.1,2.3-1.6,3.8-1.6c1.6,0,2.9,0.5,3.9,1.6c1,1.1,1.5,2.5,1.5,4.4V232
		c0,1.9-0.5,3.3-1.5,4.4c-1,1.1-2.3,1.6-3.9,1.6C194.4,238,193.2,237.4,192.2,236.4z"/>
	<path class="st1" d="M223.9,226.8c2.1,2.6,4.9,3.9,8.5,3.9c3.5,0,6.4-0.7,8.6-2.2c0.7-0.5,1.4-0.7,2.2-0.7c0.9,0,1.7,0.3,2.3,1
		c0.6,0.7,0.9,1.5,0.9,2.5c0,1.3-0.6,2.4-1.7,3.4c-1.2,1.1-2.9,2-5.2,2.7c-2.3,0.7-5,1.1-8.1,1.1c-6.3,0-11.4-2.1-15.4-6.2
		c-4-4.1-6-9.4-6-15.8c0-4,0.9-7.7,2.7-11c1.8-3.3,4.3-6,7.6-8c3.3-2,7-3,11.2-3c5,0,9,1.1,12.2,3.4c1.3,0.9,1.9,2,1.9,3.3
		c0,0.9-0.3,1.7-1,2.4c-0.7,0.7-1.5,1-2.5,1c-0.7,0-1.4-0.2-2-0.6c-2.6-1.3-5.1-1.9-7.5-1.9c-3.7,0-6.6,1.3-8.7,3.8
		c-2.1,2.6-3.1,6-3.1,10.3C220.8,220.7,221.8,224.2,223.9,226.8z"/>
	<path class="st1" d="M255.6,236.4c-1-1-1.5-2.5-1.5-4.3v-31.8c0-1.6,0.5-2.9,1.6-3.8c1.1-0.9,2.3-1.3,3.8-1.3
		c1.5,0,2.7,0.4,3.8,1.3c1.1,0.9,1.6,2.1,1.6,3.6l-0.1,4.4c0.8-2.6,2.2-4.8,4.4-6.6c2.1-1.8,4.6-2.8,7.2-2.8c1.3,0,2.3,0.4,3,1.3
		c0.7,0.9,1.1,1.9,1.1,3.2c0,1.2-0.3,2.2-1,3.2c-0.7,0.9-1.5,1.4-2.6,1.4c-1.7,0-3.2,0.1-4.5,0.4c-1.3,0.3-2.5,0.7-3.7,1.4
		c-1.2,0.7-2.1,1.7-2.8,3.1c-0.7,1.4-1,3.1-1,5.1v18c0,1.8-0.5,3.3-1.5,4.3c-1,1-2.3,1.5-3.9,1.5C257.9,238,256.6,237.5,255.6,236.4
		z"/>
	<path class="st1" d="M297.3,236.6c-2.9-1.2-5.3-2.9-7-4.9s-3.1-4.4-4-7c-0.9-2.6-1.4-5.3-1.4-8.1c0-2.3,0.3-4.5,0.8-6.6
		c0.6-2.1,1.4-4.1,2.6-6s2.7-3.5,4.4-4.9s3.8-2.5,6.3-3.3c2.5-0.8,5.2-1.2,8.2-1.2c2.9,0,5.6,0.4,8.1,1.2c2.5,0.8,4.6,1.8,6.3,3.2
		c1.7,1.4,3.2,3,4.4,4.8c1.2,1.9,2.1,3.9,2.7,6c0.6,2.2,0.9,4.4,0.9,6.8c0,2.2-0.3,4.4-0.8,6.5c-0.6,2.1-1.4,4.1-2.6,6
		c-1.2,1.9-2.6,3.5-4.4,4.9c-1.7,1.4-3.8,2.5-6.3,3.3c-2.5,0.8-5.3,1.2-8.3,1.2C303.5,238.5,300.2,237.9,297.3,236.6z M315.9,227.3
		c2-2.6,3.1-6.1,3.1-10.8c0-4.6-1-8.2-3.1-10.8c-2-2.6-4.9-3.9-8.6-3.9c-3.7,0-6.6,1.3-8.6,3.9c-2,2.6-3.1,6.2-3.1,10.9
		c0,4.6,1,8.2,3.1,10.8c2,2.6,4.9,3.8,8.6,3.8C311,231.2,313.8,229.9,315.9,227.3z"/>
</g>
<g class="st0">
	<path class="st2" d="M340.4,236.4c-1-1-1.5-2.5-1.5-4.4v-49.5c0-1.9,0.5-3.3,1.5-4.4c1-1.1,2.3-1.6,3.8-1.6s2.9,0.5,3.9,1.6
		c1,1.1,1.5,2.5,1.5,4.4V232c0,1.9-0.5,3.3-1.6,4.4c-1,1.1-2.4,1.6-3.9,1.6C342.7,238,341.4,237.4,340.4,236.4z"/>
	<path class="st2" d="M361.3,205.4c1.6-3.2,4.1-5.8,7.3-7.8c3.2-2,7-3,11.3-3c3.3,0,6.2,0.5,8.8,1.6c2.5,1.1,4.6,2.6,6.1,4.5
		c1.5,1.9,2.7,4.1,3.5,6.5c0.8,2.4,1.2,5,1.2,7.8c0,1.1-0.3,2-0.8,2.7s-1.3,1-2.3,1h-27c0.5,8,4.6,12,12.3,12
		c3.5,0,7.3-1.4,11.3-4.3c0.5-0.4,1.1-0.6,1.7-0.6c0.9,0,1.7,0.4,2.3,1.2c0.7,0.8,1,1.7,1,2.7c0,1.1-0.5,2.1-1.4,2.9
		c-4.5,3.8-9.7,5.7-15.7,5.7c-6.7,0-12.1-2-16.2-5.9c-4.1-3.9-6.1-9.4-6.1-16.4C358.8,212.2,359.7,208.7,361.3,205.4z M390.5,212.9
		c-0.2-3.3-1.2-6-2.8-8.1c-1.7-2.1-4.1-3.2-7.4-3.2c-3.2,0-5.7,1.1-7.5,3.3c-1.8,2.2-2.8,4.8-3.1,7.9H390.5z"/>
	<path class="st2" d="M409.5,235.2c-2.8-2.1-4.2-5.1-4.2-9c0-1.7,0.2-3.2,0.5-4.5c0.4-1.3,0.9-2.4,1.5-3.3c0.6-0.9,1.5-1.7,2.7-2.4
		c1.2-0.7,2.4-1.2,3.7-1.6c1.3-0.4,3-0.7,5-1c2-0.2,4-0.4,6.1-0.4c2-0.1,4.5-0.1,7.4-0.1v-3.3c0-2.7-0.6-4.6-1.9-5.9
		c-1.3-1.2-3.2-1.9-5.7-1.9c-0.5,0-1.1,0-1.6,0.1c-0.6,0-1.1,0.1-1.7,0.2s-1.1,0.2-1.5,0.3s-0.9,0.2-1.5,0.4
		c-0.6,0.2-1.1,0.3-1.4,0.4c-0.3,0.1-0.8,0.2-1.4,0.4c-0.6,0.2-1,0.3-1.2,0.4c-0.2,0.1-0.6,0.2-1.2,0.4c-0.6,0.2-0.9,0.4-0.9,0.4
		c-0.3,0.1-0.7,0.2-1.2,0.2c-1,0-1.8-0.4-2.5-1.3s-1-1.8-1-2.8c0-1.4,0.6-2.4,1.9-3c4.7-2.2,10-3.3,15.7-3.3c2.6,0,5,0.3,7,0.9
		c2.1,0.6,3.9,1.5,5.5,2.8c1.6,1.3,2.8,2.9,3.7,5.1c0.9,2.1,1.3,4.7,1.3,7.6v21.7c0,1.7-0.5,3-1.5,4c-1,0.9-2.2,1.4-3.6,1.4
		s-2.6-0.5-3.6-1.4c-1-0.9-1.5-2.3-1.5-4v-1.4c-0.9,2.2-2.4,3.9-4.4,5.3c-2,1.4-4.7,2-8,2C415.8,238.4,412.2,237.4,409.5,235.2z
		 M428.9,228.4c2.2-2.2,3.3-5.1,3.3-8.5v-1.2c-2.8,0-5.1,0-6.8,0.1c-1.7,0.1-3.2,0.2-4.7,0.5c-1.5,0.2-2.6,0.6-3.3,1.2
		s-1.3,1.2-1.7,2s-0.6,1.9-0.6,3.2c0,2,0.6,3.5,1.7,4.5c1.2,1,2.7,1.6,4.6,1.6C424.2,231.7,426.7,230.6,428.9,228.4z"/>
	<path class="st2" d="M460.3,235.6c-2.8-2-5-4.6-6.4-8c-1.4-3.3-2.2-7.1-2.2-11.3c0-6.7,1.7-12,5.2-15.9s8.1-5.8,13.9-5.8
		c6.2,0,10.7,2.3,13.5,6.8v-19.3c0-1.8,0.5-3.3,1.5-4.3s2.3-1.5,3.9-1.5c1.6,0,2.8,0.5,3.8,1.5s1.5,2.4,1.5,4.3v49.7
		c0,1.8-0.5,3.3-1.6,4.4c-1,1.1-2.3,1.6-3.9,1.6c-1.6,0-2.9-0.4-3.8-1.3c-0.9-0.9-1.4-2.2-1.4-3.9v-1.5c-2.7,4.9-7.4,7.4-14.1,7.4
		C466.4,238.6,463.1,237.6,460.3,235.6z M481.7,227.6c1.7-2.5,2.6-6.2,2.6-11.1c0-2.8-0.4-5.2-1.1-7.3c-0.7-2.1-1.9-3.9-3.7-5.2
		c-1.7-1.4-3.9-2-6.4-2c-1.9,0-3.6,0.4-5.1,1.2c-1.4,0.8-2.6,1.9-3.3,3.3c-0.8,1.4-1.4,2.9-1.8,4.6c-0.4,1.7-0.6,3.4-0.6,5.3
		c0,1.8,0.2,3.5,0.5,5.1s0.9,3.2,1.7,4.8c0.8,1.5,1.9,2.8,3.3,3.7c1.5,0.9,3.2,1.4,5.1,1.4C477,231.4,479.9,230.1,481.7,227.6z"/>
</g>
<g>
	<g>
		<path class="st1" d="M58.6,227.8c4.6-6.6,7.2-19.2,6.2-33.5c1,14.4,5.4,26.6,10.9,32.4c1.1,1.2,2.3,2.1,3.6,2.7
			c-0.1,0.4-0.3,0.8-0.8,1.2c-1.7,1.5-6,2.8-11.1,3.2c-5.1,0.4-9.5-0.3-11.5-1.6c-0.4-0.3-0.7-0.6-0.9-0.9
			C56.3,230.5,57.5,229.3,58.6,227.8z"/>
		<g>
			<path class="st1" d="M40.1,186.4c1.4-2.4,9.4-17.2,17.6-32.4l1.5,20.8c-1.9,1.1-3.1,3.1-2.9,5.4c0.2,2.3,1.7,4.2,3.7,5l0.2,2.3
				l-15.5,3.5C44.5,191.1,37.1,191.6,40.1,186.4z"/>
			<path class="st1" d="M177.8,153.6c-2.9-6.4-10.9-14.1-10.9-14.1c-14.6-7.3-36-5.8-36-5.8s-20.2,0.7-36.7,13.9l0.7-0.6
				c0.7-0.6,1.3-1.2,2-1.7c27.8-23.2,66.3-13,66.3-13l21.7-33.8c0,0,0.5-4.2-3.6-3.9c-4.1,0.3-98.9,19.3-98.9,19.3s-3.2,1.1-4.7,3.7
				c-0.7,1.2-8.1,14.9-16.2,29.8l1.9,27c2.4,0.5,4.3,2.6,4.5,5.2s-1.4,4.9-3.7,5.8l0.1,1.3l12.2-2.8l5.6,20.3
				c0,0,21.8-52.7,68.6-38.8C150.5,165.4,150,148.7,177.8,153.6z"/>
		</g>
		<path class="st1" d="M60,187.5"/>
		<g>
			<path class="st1" d="M45.4,231c6.7,10.4,26.1,5,26.2,4.4c-11.1,2.6-21.9-2.6-21-4.1c19.5-11.7,8.9-46.6,9.2-46l-1.1,0.4
				C58.4,185.6,69.4,218.4,45.4,231z"/>
		</g>
	</g>
</g>
</svg>
