<?xml version="1.0" encoding="utf-8"?>
<!-- Generator: Adobe Illustrator 26.2.1, SVG Export Plug-In . SVG Version: 6.00 Build 0)  -->
<svg version="1.1" id="Calque_1" xmlns="http://www.w3.org/2000/svg" xmlns:xlink="http://www.w3.org/1999/xlink" x="0px" y="0px"
	 viewBox="0 0 540 360" style="enable-background:new 0 0 540 360;" xml:space="preserve">
<style type="text/css">
	.st0{enable-background:new    ;}
	.st1{fill:#393639;}
	.st2{font-family:'Nunito-Bold';}
	.st3{font-size:87.3767px;}
	.st4{fill:#3989C3;}
</style>
<g>
	<text transform="matrix(1 0 0 1 101.9674 237.9568)" class="st0"><tspan x="0" y="0" class="st1 st2 st3">Micro</tspan><tspan x="231.11" y="0" class="st4 st2 st3">lead</tspan></text>
	<g>
		<g>
			<path class="st1" d="M58.62,227.76c4.61-6.58,7.19-19.21,6.19-33.49c1.01,14.4,5.38,26.63,10.94,32.45
				c1.14,1.2,2.33,2.13,3.55,2.74c-0.08,0.41-0.35,0.81-0.79,1.2c-1.73,1.52-6.02,2.81-11.12,3.17c-5.09,0.36-9.53-0.32-11.45-1.59
				c-0.42-0.28-0.72-0.58-0.88-0.91C56.35,230.51,57.54,229.3,58.62,227.76z"/>
			<g>
				<path class="st1" d="M40.07,186.41c1.38-2.43,9.38-17.16,17.63-32.38l1.46,20.84c-1.88,1.06-3.1,3.14-2.93,5.44
					c0.16,2.3,1.65,4.19,3.66,4.98l0.16,2.28l-15.5,3.51C44.54,191.07,37.12,191.59,40.07,186.41z"/>
				<path class="st1" d="M177.84,153.57c-2.94-6.43-10.94-14.15-10.94-14.15c-14.6-7.27-36.04-5.77-36.04-5.77
					s-20.15,0.69-36.74,13.86l0.7-0.55c0.65-0.59,1.3-1.16,1.96-1.71c27.77-23.19,66.3-13.02,66.3-13.02l21.67-33.84
					c0,0,0.54-4.18-3.59-3.89c-4.12,0.29-98.93,19.35-98.93,19.35s-3.24,1.06-4.72,3.65c-0.68,1.2-8.09,14.87-16.15,29.76
					l1.89,27.01c2.43,0.54,4.33,2.63,4.51,5.24c0.18,2.61-1.4,4.94-3.74,5.82l0.09,1.32l12.24-2.77l5.57,20.33
					c0,0,21.82-52.65,68.57-38.78C150.49,165.43,149.99,148.74,177.84,153.57z"/>
			</g>
			<path class="st1" d="M60.04,187.5"/>
			<g>
				<path class="st1" d="M45.41,230.98c6.68,10.41,26.08,4.96,26.21,4.37c-11.1,2.56-21.92-2.55-20.95-4.05
					c19.48-11.7,8.87-46.55,9.21-46.01l-1.06,0.38C58.44,185.64,69.44,218.43,45.41,230.98z"/>
			</g>
		</g>
	</g>
</g>
</svg>
